<?xml version="1.0" standalone="no"?>
<!DOCTYPE svg PUBLIC "-//W3C//DTD SVG 20010904//EN"
 "http://www.w3.org/TR/2001/REC-SVG-20010904/DTD/svg10.dtd">
<svg version="1.0" xmlns="http://www.w3.org/2000/svg"
 width="1600.000000pt" height="1600.000000pt" viewBox="0 0 1600.000000 1600.000000"
 preserveAspectRatio="xMidYMid meet">
<metadata>
Created by potrace 1.11, written by Peter Selinger 2001-2013
</metadata>
<g transform="translate(0.000000,1600.000000) scale(0.100000,-0.100000)"
fill="#000000" stroke="none">
<path d="M1139 12996 c-2 -2 -31 -7 -64 -10 -152 -15 -367 -97 -525 -202 -126
-82 -302 -268 -371 -391 -44 -78 -89 -172 -89 -187 0 -8 -4 -17 -9 -20 -4 -3
-14 -27 -21 -53 -6 -27 -14 -55 -18 -63 -3 -8 -7 -24 -9 -35 -32 -171 -31 -99
-29 -4060 1 -2139 5 -3901 9 -3915 4 -14 10 -43 13 -65 17 -111 116 -344 187
-441 18 -24 45 -61 62 -84 27 -38 153 -164 201 -201 122 -95 327 -199 444
-224 11 -3 30 -8 42 -11 138 -34 53 -33 5078 -31 5238 3 4911 0 5055 47 107
34 136 45 209 82 342 170 602 508 671 873 5 22 10 49 12 60 3 11 7 225 10 475
2 250 6 456 7 457 1 2 749 3 1660 3 1443 0 1667 2 1731 15 301 62 527 290 591
595 11 54 13 466 13 2385 0 2109 -3 2370 -23 2440 -2 6 -6 24 -11 40 -10 38
-69 159 -98 199 -116 164 -292 278 -487 315 -37 7 -611 10 -1714 11 -913 0
-1661 1 -1662 3 -1 1 -4 207 -7 457 -2 250 -7 466 -11 480 -3 14 -9 41 -12 60
-13 89 -112 348 -136 358 -4 2 -8 8 -8 14 0 6 -31 54 -69 107 -135 188 -313
330 -531 424 -79 34 -115 45 -215 67 -22 5 -51 13 -65 17 -25 8 -9803 17
-9811 9z"/>
</g>
</svg>
