<?xml version="1.0" standalone="no"?>
<!DOCTYPE svg PUBLIC "-//W3C//DTD SVG 20010904//EN"
 "http://www.w3.org/TR/2001/REC-SVG-20010904/DTD/svg10.dtd">
<svg version="1.0" xmlns="http://www.w3.org/2000/svg"
 width="2240.000000pt" height="2240.000000pt" viewBox="0 0 2240.000000 2240.000000"
 preserveAspectRatio="xMidYMid meet">
<metadata>
Created by potrace 1.11, written by Peter Selinger 2001-2013
</metadata>
<g transform="translate(0.000000,2240.000000) scale(0.100000,-0.100000)"
fill="#000000" stroke="none">
<path d="M7315 22103 c-153 -32 -274 -102 -384 -219 -78 -83 -140 -197 -168
-309 -17 -67 -18 -415 -18 -7725 l0 -7655 22 -82 c65 -243 232 -421 468 -501
l80 -26 395 -6 395 -5 5 -2215 c5 -2103 6 -2218 24 -2275 40 -133 132 -270
240 -357 62 -49 165 -104 256 -134 53 -18 149 -19 2478 -22 2695 -3 2493 -8
2647 67 224 107 366 295 405 533 6 42 10 802 10 2235 l0 2172 398 3 c378 4
400 5 462 26 246 83 420 267 480 506 20 79 20 121 20 7730 0 6683 -2 7660 -15
7720 -46 217 -211 411 -425 500 -146 60 137 56 -3955 55 -3286 -1 -3759 -2
-3820 -16z m4084 -1432 c533 -156 838 -701 686 -1225 -47 -161 -116 -282 -229
-404 -182 -194 -409 -297 -681 -309 -157 -6 -274 14 -412 72 -573 243 -788
938 -449 1453 145 220 361 367 627 427 99 22 361 14 458 -14z m407 -5737 c331
-67 607 -323 711 -661 25 -81 27 -101 27 -263 0 -162 -2 -182 -27 -263 -68
-222 -206 -409 -392 -532 -284 -188 -672 -202 -978 -37 l-67 36 -215 -214
-215 -215 177 -177 176 -176 -51 -59 c-28 -32 -87 -94 -131 -138 l-81 -80
-180 180 -180 180 -95 -95 -95 -96 240 -248 c133 -136 240 -253 238 -260 -2
-6 -61 -67 -132 -136 l-128 -125 -244 250 -244 250 -63 -63 -62 -62 -135 135
-135 135 643 643 642 642 -50 100 c-77 154 -93 227 -93 425 0 192 15 264 85
407 119 244 320 417 578 497 150 47 311 53 476 20z"/>
<path d="M11525 14570 c-176 -24 -344 -144 -424 -303 -134 -268 -45 -583 210
-744 192 -121 463 -104 643 38 142 113 216 267 216 449 0 161 -49 280 -165
396 -128 130 -299 188 -480 164z"/>
</g>
</svg>
