<svg xmlns="http://www.w3.org/2000/svg" viewBox="0 0 572 393" width="572" height="393" preserveAspectRatio="xMidYMid meet" style="width: 100%; height: 100%;"><defs><clipPath id="animationMask_1zl7DR3QRN"><rect width="572" height="393" x="0" y="0"></rect></clipPath><mask id="ly_GMuHl2YSOW" mask-type="alpha"><g transform="matrix(1,0,0,1,286,195)" opacity="1" style="user-select: none;"><g opacity="1" transform="matrix(1,0,0,1,1.25,-30.75)"><path fill="rgb(61,99,155)" fill-opacity="1" d="M0 0 M0,-157.25 C49.844,-157.25 90.25,-49.844 90.25,0 C90.25,49.844 84.75,152.75 0,157.75 C-84.127,162.713 -90.25,49.844 -90.25,0 C-90.25,-49.844 -49.844,-157.25 0,-157.25z"></path></g></g></mask></defs><g clip-path="url(#animationMask_1zl7DR3QRN)"><g></g><g></g><g style="user-select: none; display: block;" transform="matrix(1,0,0,1,23,124)" opacity="1"><g opacity="1" transform="matrix(1,0,0,1,28.615,68.106)"><path style="display: block;" fill="rgb(66,132,244)" fill-opacity="1" d="M0 0 M23.021,-67.359 C23.021,-67.359 -23.02,-67.359 -23.02,-67.359 C-25.48,-67.359 -27.482,-65.374 -27.482,-62.932 C-27.482,-62.932 -27.482,31.623 -27.482,31.623 C-27.482,34.065 -25.48,36.051 -23.02,36.051 C-23.02,36.051 -18.954,36.051 -18.954,36.051 C-18.954,36.051 -18.954,62.931 -18.954,62.931 C-18.954,65.37299999999999 -16.909,67.359 -14.448,67.359 C-14.448,67.359 14.449,67.359 14.449,67.359 C16.91,67.359 18.954,65.37299999999999 18.954,62.931 C18.954,62.931 18.954,36.051 18.954,36.051 C18.954,36.051 23.021,36.051 23.021,36.051 C25.481,36.051 27.482,34.065 27.482,31.623 C27.482,31.623 27.482,-62.932 27.482,-62.932 C27.482,-65.374 25.481,-67.359 23.021,-67.359zM0 0 M0,-46.172 C-3.396,-46.172 -6.16,-48.938 -6.16,-52.339 C-6.16,-55.739 -3.396,-58.505 0,-58.505 C3.396,-58.505 6.16,-55.739 6.16,-52.339 C6.16,-48.938 3.396,-46.172 0,-46.172z"></path></g><g opacity="1" transform="matrix(1,0,0,1,27.911,55.531)"><path style="display: block;" fill="rgb(51,96,181)" fill-opacity="1" d="M0 0 M0.001,17.064 C-9.417,17.064 -17.079,9.41 -17.079,0 C-17.079,-9.41 -9.417,-17.064 0.001,-17.064 C9.418,-17.064 17.079,-9.41 17.079,0 C17.079,9.41 9.418,17.064 0.001,17.064z"></path></g><g opacity="1" transform="matrix(1,0,0,1,39.299,117.604)"><path style="display: block;" fill="rgb(51,96,181)" fill-opacity="1" d="M0 0 M-2.846,13.272 C-2.846,13.272 2.846,13.272 2.846,13.272 C2.846,13.272 2.846,-13.272 2.846,-13.272 C2.846,-13.272 -2.846,-13.272 -2.846,-13.272 C-2.846,-13.272 -2.846,13.272 -2.846,13.272z"></path></g><g opacity="1" transform="matrix(1,0,0,1,31.707,115.708)"><path style="display: block;" fill="rgb(51,96,181)" fill-opacity="1" d="M0 0 M-2.846,11.376 C-2.846,11.376 2.846,11.376 2.846,11.376 C2.846,11.376 2.846,-11.376 2.846,-11.376 C2.846,-11.376 -2.846,-11.376 -2.846,-11.376 C-2.846,-11.376 -2.846,11.376 -2.846,11.376z"></path></g><g opacity="1" transform="matrix(1,0,0,1,16.526,117.604)"><path style="display: block;" fill="rgb(51,96,181)" fill-opacity="1" d="M0 0 M-2.846,13.272 C-2.846,13.272 2.846,13.272 2.846,13.272 C2.846,13.272 2.846,-13.272 2.846,-13.272 C2.846,-13.272 -2.846,-13.272 -2.846,-13.272 C-2.846,-13.272 -2.846,13.272 -2.846,13.272z"></path></g><g opacity="1" transform="matrix(1,0,0,1,24.116,115.708)"><path style="display: block;" fill="rgb(51,96,181)" fill-opacity="1" d="M0 0 M-2.846,11.376 C-2.846,11.376 2.846,11.376 2.846,11.376 C2.846,11.376 2.846,-11.376 2.846,-11.376 C2.846,-11.376 -2.846,-11.376 -2.846,-11.376 C-2.846,-11.376 -2.846,11.376 -2.846,11.376z"></path></g><g opacity="1" transform="matrix(1,0,0,1,28.012,56.14)"><path style="display: block;" fill="rgb(255,255,255)" fill-opacity="1" d="M0 0 M7.78,-8.817 C6.678,-9.952 5.197,-10.592 3.614,-10.615 C2.024,-10.645 0.532,-10.046000000000001 -0.605,-8.944 C-2.683,-6.931000000000001 -2.963,-3.757 -1.421,-1.427 C-1.421,-1.427 -9.478,6.624 -9.478,6.624 C-9.478,6.624 -7.802,8.3 -7.802,8.3 C-7.802,8.3 -7.013,7.51 -7.013,7.51 C-7.013,7.51 -3.97,10.645 -3.97,10.645 C-3.97,10.645 -2.267,8.994 -2.267,8.994 C-2.267,8.994 -5.335,5.834 -5.335,5.834 C-5.335,5.834 -4.144,4.646 -4.144,4.646 C-4.144,4.646 -1.882,6.871 -1.882,6.871 C-1.882,6.871 -0.218,5.183 -0.218,5.183 C-0.218,5.183 -2.467,2.969 -2.467,2.969 C-2.467,2.969 0.255,0.251 0.255,0.251 C1.242,0.902 2.382,1.231 3.524,1.231 C5.0120000000000005,1.231 6.503,0.6760000000000002 7.653,-0.438 C8.79,-1.54 9.429,-3.019 9.454,-4.601 C9.478,-6.183 8.884,-7.68 7.78,-8.817zM0 0 M6.001,-2.139 C5.319,-1.4779999999999998 4.4239999999999995,-1.119 3.469,-1.136 C2.519,-1.1509999999999998 1.631,-1.5350000000000001 0.969,-2.216 C0.30799999999999994,-2.898 -0.049,-3.7960000000000003 -0.034,-4.745 C-0.020000000000000004,-5.695 0.365,-6.582000000000001 1.046,-7.243 C1.737,-7.9110000000000005 2.63,-8.244 3.523,-8.244 C4.453,-8.244 5.381,-7.884 6.078,-7.166 C7.444000000000001,-5.759 7.409000000000001,-3.5039999999999996 6.001,-2.139z"></path></g></g><g style="user-select: none; display: block;" transform="matrix(1,0,0,1,471,113)" opacity="1"><g opacity="1" transform="matrix(1,0,0,1,50.687,78.875)"><path style="display: block;" fill="rgb(226,226,226)" fill-opacity="1" d="M0 0 M47.673,22.202 C47.673,22.202 33.72,-33.579 33.72,-33.579 C33.72,-33.579 26.701,-59.451 26.701,-59.451 C24.251,-65.919 19.249,-71.214 12.764,-74.203 C12.764,-74.203 11.844,-74.627 11.844,-74.627 C4.039999999999999,-78.22399999999999 -5.08,-78.102 -12.776,-74.3 C-18.967,-71.24199999999999 -23.713,-66.055 -26.061,-59.786 C-26.061,-59.786 -34.123,-29.714 -34.123,-29.714 C-34.123,-29.714 -47.583,21.585 -47.583,21.585 C-49.522,30.616 -48.556,39.995999999999995 -44.812,48.492 C-44.812,48.492 -44.257,49.753 -44.257,49.753 C-38.525999999999996,62.759 -26.825,72.504 -12.558,76.153 C-4.684,78.167 3.5980000000000008,78.224 11.502,76.318 C11.502,76.318 12.34,76.116 12.34,76.116 C27.296,72.509 39.51,62.229 45.144,48.508 C45.144,48.508 45.339,48.035 45.339,48.035 C48.711999999999996,39.81999999999999 49.523,30.848000000000003 47.673,22.202zM0 0 M0.042,-44.453 C-6.314,-44.453 -11.468,-49.605000000000004 -11.468,-55.962 C-11.468,-62.318000000000005 -6.314,-67.471 0.042,-67.471 C6.398,-67.471 11.551,-62.318000000000005 11.551,-55.962 C11.551,-49.605000000000004 6.398,-44.453 0.042,-44.453z"></path></g><g opacity="1" transform="matrix(1,0,0,1,50.729,109.437)"><path style="display: block;" fill="rgb(201,201,201)" fill-opacity="1" d="M0 0 M31.96,-0.001 C31.96,11.431000000000001 17.65,20.699 0,20.699 C-17.651,20.699 -31.96,11.431000000000001 -31.96,-0.001 C-31.96,-11.433 -17.651,-20.699 0,-20.699 C17.65,-20.699 31.96,-11.433 31.96,-0.001z"></path></g><g opacity="1" transform="matrix(1,0,0,1,50.729,109.437)"><path style="display: block;" fill="rgb(226,226,226)" fill-opacity="1" d="M0 0 M9.688,-0.001 C9.688,5.35 5.35,9.688 0,9.688 C-5.35,9.688 -9.688,5.35 -9.688,-0.001 C-9.688,-5.351 -5.35,-9.688 0,-9.688 C5.35,-9.688 9.688,-5.351 9.688,-0.001z"></path></g><g opacity="1" transform="matrix(1,0,0,1,75.579,62.137)"><path style="display: block;" fill="rgb(134,167,223)" fill-opacity="1" d="M0 0 M4.692,0 C4.692,2.591 2.591,4.692 0,4.692 C-2.591,4.692 -4.692,2.591 -4.692,0 C-4.692,-2.591 -2.591,-4.692 0,-4.692 C2.591,-4.692 4.692,-2.591 4.692,0z"></path></g><g opacity="1" transform="matrix(1,0,0,1,26.839,62.082)"><path style="display: block;" fill="rgb(201,201,201)" fill-opacity="1" d="M0 0 M0,5.52 C0,5.52 0,5.52 0,5.52 C-2.003,5.52 -3.643,3.88 -3.643,1.877 C-3.643,1.877 -3.643,-1.876 -3.643,-1.876 C-3.643,-3.88 -2.003,-5.52 0,-5.52 C2.004,-5.52 3.643,-3.88 3.643,-1.876 C3.643,-1.876 3.643,1.877 3.643,1.877 C3.643,3.88 2.004,5.52 0,5.52z"></path></g></g><g style="user-select: none; display: block;" transform="matrix(1,0,0,1,150,0)" opacity="1"><g opacity="1" transform="matrix(1,0,0,1,136.323,387.063)"><path style="display: block;" fill="rgb(239,239,239)" fill-opacity="1" d="M0 0 M0,5.063 C63.222,5.063 114.472,2.796 114.472,0.001 C114.472,-2.795 63.222,-5.063 0,-5.063 C-63.221,-5.063 -114.472,-2.795 -114.472,0.001 C-114.472,2.796 -63.221,5.063 0,5.063z"></path></g></g><g style="user-select: none; display: block;" transform="matrix(1,0,0,1,150,0)" opacity="1"><g opacity="1" transform="matrix(1,0,0,1,136.323,177.108)"><path style="display: block;" fill="rgb(66,132,244)" fill-opacity="1" d="M0 0 M0,175.965 C91.562,132.782 124.239,54.662 132.603,-1.812 C134.297,-14.475999999999999 135.274,-27.226 135.53,-40 C135.53,-40 135.53,-135.613 135.53,-135.613 C135.53,-135.613 0,-175.965 0,-175.965 C0,-175.965 -135.53,-135.613 -135.53,-135.613 C-135.53,-135.613 -135.53,-39.993 -135.53,-39.993 C-135.274,-27.218000000000004 -134.297,-14.469 -132.603,-1.805 C-124.239,54.662 -91.554,132.79000000000002 0,175.965z"></path></g></g><g mask="url(#ly_GMuHl2YSOW)"><g style="user-select: none; display: block;" transform="matrix(1,0,0,1,286,195)" opacity="1"><g opacity="1" transform="matrix(1,0,0,1,2.25,-81.25)"><path stroke-linecap="butt" stroke-linejoin="miter" fill-opacity="0" stroke-miterlimit="4" style="display: block;" stroke="rgb(255,255,255)" stroke-opacity="1" stroke-width="15.7" d="M0 0 M-35.118,63.75 C-35.118,63.75 -35.247,22.286 -35.247,3.861 C-35.247,-14.564 -20.311,-29.5 -1.886,-29.5 C16.539,-29.5 31.982000000000003,-14.556999999999999 31.475,3.861 C31.255000000000003,11.854000000000001 31.503,25.266 31.503,25.266"></path></g><g opacity="1" transform="matrix(1,0,0,1,0.25,-0.875)"><path style="display: block;" fill="rgb(255,255,255)" fill-opacity="1" d="M0 0 M65,-41.675 C65,-41.675 65,41.675 65,41.675 C65,50.891729999999995 57.516729999999995,58.375 48.3,58.375 C48.3,58.375 -48.3,58.375 -48.3,58.375 C-57.516729999999995,58.375 -65,50.891729999999995 -65,41.675 C-65,41.675 -65,-41.675 -65,-41.675 C-65,-50.891729999999995 -57.516729999999995,-58.375 -48.3,-58.375 C-48.3,-58.375 48.3,-58.375 48.3,-58.375 C57.516729999999995,-58.375 65,-50.891729999999995 65,-41.675z"></path></g><g opacity="1" transform="matrix(1,0,0,1,0.323,0.455)"><path style="display: block;" fill="rgb(51,96,181)" fill-opacity="1" d="M0 0 M17.223,-7.864 C17.22,-17.375 9.507,-25.083 -0.005,-25.08 C-9.516,-25.076999999999998 -17.225,-17.364 -17.222,-7.852 C-17.220000000000002,-1.245 -13.438,4.778 -7.488,7.651 C-7.488,7.651 -7.488,25.083 -7.488,25.083 C-7.488,25.083 7.488,25.083 7.488,25.083 C7.488,25.083 7.488,7.651 7.488,7.651 C13.442,4.776999999999999 17.224999999999998,-1.2530000000000001 17.223,-7.864z"></path></g></g></g></g></svg>
