<svg xmlns="http://www.w3.org/2000/svg"  width="60" height="140">
      <g style="-moz-user-select: none; display: block;" transform="matrix(1,0,0,1,1,1)" opacity="1">
        <g opacity="1" transform="matrix(1,0,0,1,28.615,68.106)">
        <path style="display: block;" fill="rgb(66,132,244)" fill-opacity="1" d="M0 0 M23.021,-67.359 C23.021,-67.359 -23.02,-67.359 -23.02,-67.359 C-25.48,-67.359 -27.482,-65.374 -27.482,-62.932 C-27.482,-62.932 -27.482,31.623 -27.482,31.623 C-27.482,34.065 -25.48,36.051 -23.02,36.051 C-23.02,36.051 -18.954,36.051 -18.954,36.051 C-18.954,36.051 -18.954,62.931 -18.954,62.931 C-18.954,65.37299999999999 -16.909,67.359 -14.448,67.359 C-14.448,67.359 14.449,67.359 14.449,67.359 C16.91,67.359 18.954,65.37299999999999 18.954,62.931 C18.954,62.931 18.954,36.051 18.954,36.051 C18.954,36.051 23.021,36.051 23.021,36.051 C25.481,36.051 27.482,34.065 27.482,31.623 C27.482,31.623 27.482,-62.932 27.482,-62.932 C27.482,-65.374 25.481,-67.359 23.021,-67.359zM0 0 M0,-46.172 C-3.396,-46.172 -6.16,-48.938 -6.16,-52.339 C-6.16,-55.739 -3.396,-58.505 0,-58.505 C3.396,-58.505 6.16,-55.739 6.16,-52.339 C6.16,-48.938 3.396,-46.172 0,-46.172z"></path>
        </g>
        <g opacity="1" transform="matrix(1,0,0,1,27.911,55.531)">
          <path style="display: block;" fill="rgb(51,96,181)" fill-opacity="1" d="M0 0 M0.001,17.064 C-9.417,17.064 -17.079,9.41 -17.079,0 C-17.079,-9.41 -9.417,-17.064 0.001,-17.064 C9.418,-17.064 17.079,-9.41 17.079,0 C17.079,9.41 9.418,17.064 0.001,17.064z"></path>
        </g>
        <g opacity="1" transform="matrix(1,0,0,1,39.299,117.604)">
          <path style="display: block;" fill="rgb(51,96,181)" fill-opacity="1" d="M0 0 M-2.846,13.272 C-2.846,13.272 2.846,13.272 2.846,13.272 C2.846,13.272 2.846,-13.272 2.846,-13.272 C2.846,-13.272 -2.846,-13.272 -2.846,-13.272 C-2.846,-13.272 -2.846,13.272 -2.846,13.272z"></path>
        </g>
        <g opacity="1" transform="matrix(1,0,0,1,31.707,115.708)">
          <path style="display: block;" fill="rgb(51,96,181)" fill-opacity="1" d="M0 0 M-2.846,11.376 C-2.846,11.376 2.846,11.376 2.846,11.376 C2.846,11.376 2.846,-11.376 2.846,-11.376 C2.846,-11.376 -2.846,-11.376 -2.846,-11.376 C-2.846,-11.376 -2.846,11.376 -2.846,11.376z"></path>
        </g>
        <g opacity="1" transform="matrix(1,0,0,1,16.526,117.604)">
          <path style="display: block;" fill="rgb(51,96,181)" fill-opacity="1" d="M0 0 M-2.846,13.272 C-2.846,13.272 2.846,13.272 2.846,13.272 C2.846,13.272 2.846,-13.272 2.846,-13.272 C2.846,-13.272 -2.846,-13.272 -2.846,-13.272 C-2.846,-13.272 -2.846,13.272 -2.846,13.272z"></path>
        </g>
        <g opacity="1" transform="matrix(1,0,0,1,24.116,115.708)">
          <path style="display: block;" fill="rgb(51,96,181)" fill-opacity="1" d="M0 0 M-2.846,11.376 C-2.846,11.376 2.846,11.376 2.846,11.376 C2.846,11.376 2.846,-11.376 2.846,-11.376 C2.846,-11.376 -2.846,-11.376 -2.846,-11.376 C-2.846,-11.376 -2.846,11.376 -2.846,11.376z"></path>
        </g>
        <g opacity="1" transform="matrix(1,0,0,1,28.012,56.14)"><path style="display: block;" fill="rgb(255,255,255)" fill-opacity="1" d="M0 0 M7.78,-8.817 C6.678,-9.952 5.197,-10.592 3.614,-10.615 C2.024,-10.645 0.532,-10.046000000000001 -0.605,-8.944 C-2.683,-6.931000000000001 -2.963,-3.757 -1.421,-1.427 C-1.421,-1.427 -9.478,6.624 -9.478,6.624 C-9.478,6.624 -7.802,8.3 -7.802,8.3 C-7.802,8.3 -7.013,7.51 -7.013,7.51 C-7.013,7.51 -3.97,10.645 -3.97,10.645 C-3.97,10.645 -2.267,8.994 -2.267,8.994 C-2.267,8.994 -5.335,5.834 -5.335,5.834 C-5.335,5.834 -4.144,4.646 -4.144,4.646 C-4.144,4.646 -1.882,6.871 -1.882,6.871 C-1.882,6.871 -0.218,5.183 -0.218,5.183 C-0.218,5.183 -2.467,2.969 -2.467,2.969 C-2.467,2.969 0.255,0.251 0.255,0.251 C1.242,0.902 2.382,1.231 3.524,1.231 C5.0120000000000005,1.231 6.503,0.6760000000000002 7.653,-0.438 C8.79,-1.54 9.429,-3.019 9.454,-4.601 C9.478,-6.183 8.884,-7.68 7.78,-8.817zM0 0 M6.001,-2.139 C5.319,-1.4779999999999998 4.4239999999999995,-1.119 3.469,-1.136 C2.519,-1.1509999999999998 1.631,-1.5350000000000001 0.969,-2.216 C0.30799999999999994,-2.898 -0.049,-3.7960000000000003 -0.034,-4.745 C-0.020000000000000004,-5.695 0.365,-6.582000000000001 1.046,-7.243 C1.737,-7.9110000000000005 2.63,-8.244 3.523,-8.244 C4.453,-8.244 5.381,-7.884 6.078,-7.166 C7.444000000000001,-5.759 7.409000000000001,-3.5039999999999996 6.001,-2.139z"></path>
        </g>
      </g>

  </svg>
