<?xml version="1.0" encoding="UTF-8" standalone="no"?>
<svg
   xmlns:dc="http://purl.org/dc/elements/1.1/"
   xmlns:cc="http://creativecommons.org/ns#"
   xmlns:rdf="http://www.w3.org/1999/02/22-rdf-syntax-ns#"
   xmlns:svg="http://www.w3.org/2000/svg"
   xmlns="http://www.w3.org/2000/svg"
   xmlns:sodipodi="http://sodipodi.sourceforge.net/DTD/sodipodi-0.dtd"
   xmlns:inkscape="http://www.inkscape.org/namespaces/inkscape"
   viewBox="0 0 572 393"
   width="572"
   height="393"
   preserveAspectRatio="xMidYMid meet"
   style="width: 100%; height: 100%;"
   version="1.1"
   id="svg100"
   sodipodi:docname="yubi_header.svg"
   inkscape:version="0.92.2 (5c3e80d, 2017-08-06)">
  <metadata
     id="metadata104">
    <rdf:RDF>
      <cc:Work
         rdf:about="">
        <dc:format>image/svg+xml</dc:format>
        <dc:type
           rdf:resource="http://purl.org/dc/dcmitype/StillImage" />
        <dc:title></dc:title>
      </cc:Work>
    </rdf:RDF>
  </metadata>
  <sodipodi:namedview
     pagecolor="#ffffff"
     bordercolor="#666666"
     borderopacity="1"
     objecttolerance="10"
     gridtolerance="10"
     guidetolerance="10"
     inkscape:pageopacity="0"
     inkscape:pageshadow="2"
     inkscape:window-width="1920"
     inkscape:window-height="1003"
     id="namedview102"
     showgrid="true"
     showguides="false"
     inkscape:snap-bbox="true"
     inkscape:snap-global="false"
     inkscape:zoom="1.385553"
     inkscape:cx="280"
     inkscape:cy="222.5315"
     inkscape:window-x="0"
     inkscape:window-y="0"
     inkscape:window-maximized="1"
     inkscape:current-layer="svg100">
    <inkscape:grid
       type="xygrid"
       id="grid3802" />
  </sodipodi:namedview>
  <defs
     id="defs12">
    <clipPath
       id="animationMask_1zl7DR3QRN">
      <rect
         width="572"
         height="393"
         x="0"
         y="0"
         id="rect2" />
    </clipPath>
    <mask
       id="ly_GMuHl2YSOW"
       mask-type="alpha">
      <g
         transform="matrix(1,0,0,1,286,195)"
         opacity="1"
         style="user-select: none;"
         id="g9">
        <g
           opacity="1"
           transform="matrix(1,0,0,1,1.25,-30.75)"
           id="g7">
          <path
             fill="rgb(61,99,155)"
             fill-opacity="1"
             d="M0 0 M0,-157.25 C49.844,-157.25 90.25,-49.844 90.25,0 C90.25,49.844 84.75,152.75 0,157.75 C-84.127,162.713 -90.25,49.844 -90.25,0 C-90.25,-49.844 -49.844,-157.25 0,-157.25z"
             id="path5" />
        </g>
      </g>
    </mask>
  </defs>
  <g
     clip-path="url(#animationMask_1zl7DR3QRN)"
     id="g98"
     transform="matrix(1.6454209,0,0,1.6997518,195.0716,-155.05158)">
    <g
       id="g14" />
    <g
       id="g16" />
    <g
       style="display:block;opacity:1"
       transform="translate(23,124)"
       id="g46">
      <g
         transform="translate(28.615,68.106)"
         id="g20"
         style="opacity:1">
        <path
           style="display:block;fill:#4284f4;fill-opacity:1"
           d="m 0,0 m 23.021,-67.359 c 0,0 -46.041,0 -46.041,0 -2.46,0 -4.462,1.985 -4.462,4.427 0,0 0,94.555 0,94.555 0,2.442 2.002,4.428 4.462,4.428 0,0 4.066,0 4.066,0 0,0 0,26.88 0,26.88 0,2.442 2.045,4.428 4.506,4.428 0,0 28.897,0 28.897,0 2.461,0 4.505,-1.986 4.505,-4.428 0,0 0,-26.88 0,-26.88 0,0 4.067,0 4.067,0 2.46,0 4.461,-1.986 4.461,-4.428 0,0 0,-94.555 0,-94.555 0,-2.442 -2.001,-4.427 -4.461,-4.427 z M 0,0 m 0,-46.172 c -3.396,0 -6.16,-2.766 -6.16,-6.167 0,-3.4 2.764,-6.166 6.16,-6.166 3.396,0 6.16,2.766 6.16,6.166 0,3.401 -2.764,6.167 -6.16,6.167 z"
           id="path18"
           inkscape:connector-curvature="0" />
      </g>
      <g
         transform="translate(27.911,55.531)"
         id="g24"
         style="opacity:1">
        <path
           style="display:block;fill:#3360b5;fill-opacity:1"
           d="m 0,0 m 0.001,17.064 c -9.418,0 -17.08,-7.654 -17.08,-17.064 0,-9.41 7.662,-17.064 17.08,-17.064 9.417,0 17.078,7.654 17.078,17.064 0,9.41 -7.661,17.064 -17.078,17.064 z"
           id="path22"
           inkscape:connector-curvature="0" />
      </g>
      <g
         transform="translate(39.299,117.604)"
         id="g28"
         style="opacity:1">
        <path
           style="display:block;fill:#3360b5;fill-opacity:1"
           d="m 0,0 m -2.846,13.272 c 0,0 5.692,0 5.692,0 0,0 0,-26.544 0,-26.544 0,0 -5.692,0 -5.692,0 0,0 0,26.544 0,26.544 z"
           id="path26"
           inkscape:connector-curvature="0" />
      </g>
      <g
         transform="translate(31.707,115.708)"
         id="g32"
         style="opacity:1">
        <path
           style="display:block;fill:#3360b5;fill-opacity:1"
           d="m 0,0 m -2.846,11.376 c 0,0 5.692,0 5.692,0 0,0 0,-22.752 0,-22.752 0,0 -5.692,0 -5.692,0 0,0 0,22.752 0,22.752 z"
           id="path30"
           inkscape:connector-curvature="0" />
      </g>
      <g
         transform="translate(16.526,117.604)"
         id="g36"
         style="opacity:1">
        <path
           style="display:block;fill:#3360b5;fill-opacity:1"
           d="m 0,0 m -2.846,13.272 c 0,0 5.692,0 5.692,0 0,0 0,-26.544 0,-26.544 0,0 -5.692,0 -5.692,0 0,0 0,26.544 0,26.544 z"
           id="path34"
           inkscape:connector-curvature="0" />
      </g>
      <g
         transform="translate(24.116,115.708)"
         id="g40"
         style="opacity:1">
        <path
           style="display:block;fill:#3360b5;fill-opacity:1"
           d="m 0,0 m -2.846,11.376 c 0,0 5.692,0 5.692,0 0,0 0,-22.752 0,-22.752 0,0 -5.692,0 -5.692,0 0,0 0,22.752 0,22.752 z"
           id="path38"
           inkscape:connector-curvature="0" />
      </g>
      <g
         transform="translate(28.012,56.14)"
         id="g44"
         style="opacity:1">
        <path
           style="display:block;fill:#ffffff;fill-opacity:1"
           d="m 0,0 m 7.78,-8.817 c -1.102,-1.135 -2.583,-1.775 -4.166,-1.798 -1.59,-0.03 -3.082,0.569 -4.219,1.671 -2.078,2.013 -2.358,5.187 -0.816,7.517 0,0 -8.057,8.051 -8.057,8.051 0,0 1.676,1.676 1.676,1.676 0,0 0.789,-0.79 0.789,-0.79 0,0 3.043,3.135 3.043,3.135 0,0 1.703,-1.651 1.703,-1.651 0,0 -3.068,-3.16 -3.068,-3.16 0,0 1.191,-1.188 1.191,-1.188 0,0 2.262,2.225 2.262,2.225 0,0 1.664,-1.688 1.664,-1.688 0,0 -2.249,-2.214 -2.249,-2.214 0,0 2.722,-2.718 2.722,-2.718 0.987,0.651 2.127,0.98 3.269,0.98 1.488,0 2.979,-0.555 4.129,-1.669 C 8.79,-1.54 9.429,-3.019 9.454,-4.601 9.478,-6.183 8.884,-7.68 7.78,-8.817 Z M 0,0 m 6.001,-2.139 c -0.682,0.661 -1.577,1.02 -2.532,1.003 -0.95,-0.015 -1.838,-0.399 -2.5,-1.08 -0.661,-0.682 -1.018,-1.58 -1.003,-2.529 0.014,-0.95 0.399,-1.837 1.08,-2.498 0.691,-0.668 1.584,-1.001 2.477,-1.001 0.93,0 1.858,0.36 2.555,1.078 1.366,1.407 1.331,3.662 -0.077,5.027 z"
           id="path42"
           inkscape:connector-curvature="0" />
      </g>
    </g>
    <g
       style="display:block;opacity:1"
       transform="translate(471,113)"
       id="g68">
      <g
         transform="translate(50.687,78.875)"
         id="g50"
         style="opacity:1" />
      <g
         transform="translate(50.729,109.437)"
         id="g54"
         style="opacity:1" />
      <g
         transform="translate(50.729,109.437)"
         id="g58"
         style="opacity:1" />
      <g
         transform="translate(75.579,62.137)"
         id="g62"
         style="opacity:1" />
      <g
         transform="translate(26.839,62.082)"
         id="g66"
         style="opacity:1" />
    </g>
    <g
       style="display:block;opacity:1"
       transform="translate(150)"
       id="g74">
      <g
         transform="translate(136.323,387.063)"
         id="g72"
         style="opacity:1" />
    </g>
    <g
       style="display:block;opacity:1"
       transform="translate(150)"
       id="g80">
      <g
         transform="translate(136.323,177.108)"
         id="g78"
         style="opacity:1" />
    </g>
    <g
       mask="url(#ly_GMuHl2YSOW)"
       id="g96">
      <g
         style="display:block;opacity:1"
         transform="translate(286,195)"
         id="g94">
        <g
           transform="translate(2.25,-81.25)"
           id="g84"
           style="opacity:1" />
        <g
           transform="translate(0.25,-0.875)"
           id="g88"
           style="opacity:1" />
        <g
           transform="translate(0.323,0.455)"
           id="g92"
           style="opacity:1" />
      </g>
    </g>
  </g>
  <path
     style="display:block;fill:#efefef;fill-opacity:1"
     d="M 280,27.937 M 280,33 c 63.222,0 114.472,-2.267 114.472,-5.062 0,-2.796 -51.25,-5.064 -114.472,-5.064 -63.221,0 -114.472,2.268 -114.472,5.064 0,2.795 51.251,5.062 114.472,5.062 z"
     id="path70"
     inkscape:connector-curvature="0" />
  <path
     style="display:block;fill:#efefef;fill-opacity:1"
     d="m 280,313 m 0,5.063 c 63.222,0 114.472,-2.267 114.472,-5.062 0,-2.796 -51.25,-5.064 -114.472,-5.064 -63.221,0 -114.472,2.268 -114.472,5.064 0,2.795 51.251,5.062 114.472,5.062 z"
     id="path70-3"
     inkscape:connector-curvature="0" />
</svg>
